<svg xmlns="http://www.w3.org/2000/svg" viewBox="0 0 410 90">
  <!-- Pez: réplica del logo original (cola luna, cuerpo redondo, aleta dorsal llama) -->
  <g transform="translate(-3,-2) scale(0.5)">
    <path d="M73,90 C68,70 50,45 10,33 C26,53 38,73 40,90 Z" fill="#1a1a1a"/>
    <path d="M73,90 C68,110 50,135 10,147 C26,127 38,107 40,90 Z" fill="#1a1a1a"/>
    <path d="M73,90 C73,57 100,30 130,30 C156,30 177,55 195,90 C177,125 156,150 130,150 C100,150 73,123 73,90 Z" fill="#1a1a1a"/>
    <path d="M108,35 C98,17 75,9 52,15 C68,27 88,37 102,49 Z" fill="#1a1a1a"/>
    <path d="M112,145 C105,163 88,173 70,169 C85,159 98,150 105,139 Z" fill="#1a1a1a"/>
    <path d="M132,146 C128,163 113,174 96,171 C108,161 119,152 125,142 Z" fill="#1a1a1a"/>
    <ellipse cx="165" cy="83" rx="8" ry="11" fill="white"/>
  </g>

  <!-- TROPEA -->
  <text x="125" y="38" font-family="Georgia,'Times New Roman',serif" font-size="26" font-weight="700" fill="#1a1a1a" letter-spacing="2.5">TROPEA</text>
  <line x1="125" y1="46" x2="406" y2="46" stroke="#F4A7B9" stroke-width="1.2"/>
  <circle cx="114" cy="55" r="2.5" fill="#F4A7B9"/>
  <text x="126" y="63" font-family="Georgia,'Times New Roman',serif" font-size="11" font-weight="400" fill="#1a1a1a" letter-spacing="6">BOUTIQUE</text>
</svg>
